<svg xmlns="http://www.w3.org/2000/svg">


  <!-- Messaging -->
  <symbol id="message" viewBox="0 0 24 24">
    <path d="M3 20l1 -4a8 8 0 1 1 3 3z"
          fill="none" stroke="currentColor" stroke-width="2" stroke-linecap="round" stroke-linejoin="round"/>
  </symbol>

  <!-- Notifications -->
  <symbol id="notification" viewBox="0 0 24 24">
    <path d="M10 21h4a2 2 0 0 1 -4 0z"
          fill="none" stroke="currentColor" stroke-width="2"/>
    <path d="M18 16v-5a6 6 0 1 0 -12 0v5l-2 2h16z"
          fill="none" stroke="currentColor" stroke-width="2"/>
  </symbol>

  	<!-- Video -->
	<symbol id="video" viewBox="0 0 24 24">
		<path d="M3 7a2 2 0 0 1 2-2h9a2 2 0 0 1 2 2v10a2 2 0 0 1-2 2H5a2 2 0 0 1-2-2V7z" 
			fill="none" stroke="currentColor" stroke-width="2"/>
		<path d="M17 9l4-2v10l-4-2" fill="none" stroke="currentColor" stroke-width="2" stroke-linejoin="round"/>
	</symbol>


  <!-- Search -->
  <symbol id="search" viewBox="0 0 24 24">
    <circle cx="11" cy="11" r="7" fill="none" stroke="currentColor" stroke-width="2"/>
    <line x1="16.65" y1="16.65" x2="21" y2="21"
          stroke="currentColor" stroke-width="2" stroke-linecap="round"/>
  </symbol>

  <!-- Feedback -->
  <symbol id="feedback" viewBox="0 0 24 24">
    <path d="M8 9h8" stroke="currentColor" stroke-width="2" fill="none"/>
    <path d="M8 13h6" stroke="currentColor" stroke-width="2" fill="none"/>
    <path d="M12 20l-4 -4h-2a2 2 0 0 1 -2 -2v-8a2 2 0 0 1 2 -2h12a2 2 0 0 1 2 2v8a2 2 0 0 1 -2 2h-6z"
          stroke="currentColor" stroke-width="2" fill="none"/>
  </symbol>

  <!-- Settings -->
  <symbol id="settings" viewBox="0 0 24 24">
    <path d="M12 15a3 3 0 1 0 -3 -3a3 3 0 0 0 3 3z"
          fill="none" stroke="currentColor" stroke-width="2"/>
    <path d="M19.4 15a1.7 1.7 0 0 0 .3 1.8l.1.1a2 2 0 1 1 -2.8 2.8l-.1-.1a1.7 1.7 0 0 0 -1.8-.3a1.7 1.7 0 0 0 -1 1.5v.2a2 2 0 1 1 -4 0v-.2a1.7 1.7 0 0 0 -1-1.5a1.7 1.7 0 0 0 -1.8.3l-.1.1a2 2 0 1 1 -2.8-2.8l.1-.1a1.7 1.7 0 0 0 .3-1.8a1.7 1.7 0 0 0 -1.5-1h-.2a2 2 0 1 1 0-4h.2a1.7 1.7 0 0 0 1.5-1a1.7 1.7 0 0 0 -.3-1.8l-.1-.1a2 2 0 1 1 2.8-2.8l.1.1a1.7 1.7 0 0 0 1.8.3a1.7 1.7 0 0 0 1-1.5v-.2a2 2 0 1 1 4 0v.2a1.7 1.7 0 0 0 1 1.5a1.7 1.7 0 0 0 1.8-.3l.1-.1a2 2 0 1 1 2.8 2.8l-.1.1a1.7 1.7 0 0 0 -.3 1.8a1.7 1.7 0 0 0 1.5 1h.2a2 2 0 1 1 0 4h-.2a1.7 1.7 0 0 0 -1.5 1z"
          fill="none" stroke="currentColor" stroke-width="2"/>
  </symbol>

<!-- Help -->
<symbol id="help" viewBox="0 0 24 24">
  <circle cx="12" cy="12" r="9"
          fill="none" stroke="currentColor" stroke-width="2"/>
  <path d="M12 8a2.5 2.5 0 1 1 -2.5 2.5"
        fill="none" stroke="currentColor" stroke-width="2"/>
  <circle cx="12" cy="16.5" r="1.5" fill="currentColor"/>
</symbol>

<!-- Display -->
<symbol id="display" viewBox="0 0 24 24">
  <rect x="3" y="4" width="18" height="12" rx="2"
        fill="none" stroke="currentColor" stroke-width="2"/>
  <rect x="9" y="18" width="6" height="2" rx="1"
        fill="currentColor"/>
</symbol>



  <!-- Logout -->
  <symbol id="logout" viewBox="0 0 24 24">
    <path d="M14 8v-2a2 2 0 0 0 -2 -2h-6a2 2 0 0 0 -2 2v12a2 2 0 0 0 2 2h6a2 2 0 0 0 2 -2v-2"
          fill="none" stroke="currentColor" stroke-width="2"/>
    <path d="M9 12h12l-3 -3m0 6l3 -3"
          fill="none" stroke="currentColor" stroke-width="2"/>
  </symbol>

<!--  -->

  <!-- News -->
  <symbol id="news" viewBox="0 0 24 24">
    <rect x="3" y="4" width="18" height="16" rx="2"
          fill="none" stroke="currentColor" stroke-width="2"/>
    <line x1="7" y1="8" x2="17" y2="8"
          stroke="currentColor" stroke-width="2"/>
    <line x1="7" y1="12" x2="14" y2="12"
          stroke="currentColor" stroke-width="2"/>
    <line x1="7" y1="16" x2="12" y2="16"
          stroke="currentColor" stroke-width="2"/>
  </symbol>

  <!-- Friends -->
  <symbol id="friends" viewBox="0 0 24 24">
    <circle cx="9" cy="8" r="3"
            fill="none" stroke="currentColor" stroke-width="2"/>
    <circle cx="17" cy="10" r="3"
            fill="none" stroke="currentColor" stroke-width="2"/>
    <path d="M4 20v-1a5 5 0 0 1 5-5h2"
          fill="none" stroke="currentColor" stroke-width="2"/>
    <path d="M12 14h2a5 5 0 0 1 5 5v1"
          fill="none" stroke="currentColor" stroke-width="2"/>
  </symbol>

  <!-- Group -->
  <symbol id="group" viewBox="0 0 24 24">
    <circle cx="9" cy="7" r="3"
            fill="none" stroke="currentColor" stroke-width="2"/>
    <circle cx="17" cy="7" r="3"
            fill="none" stroke="currentColor" stroke-width="2"/>
    <path d="M4 21v-2a5 5 0 0 1 5-5h2"
          fill="none" stroke="currentColor" stroke-width="2"/>
    <path d="M13 14h2a5 5 0 0 1 5 5v2"
          fill="none" stroke="currentColor" stroke-width="2"/>
  </symbol>

  <!-- Marketplace -->
  <symbol id="marketplace" viewBox="0 0 24 24">
    <path d="M4 7h16l-1 12H5L4 7z"
          fill="none" stroke="currentColor" stroke-width="2"/>
    <path d="M7 7V5a2 2 0 0 1 2-2h6a2 2 0 0 1 2 2v2"
          fill="none" stroke="currentColor" stroke-width="2"/>
  </symbol>

  <!-- Watch -->
  <symbol id="watch" viewBox="0 0 24 24">
    <rect x="3" y="6" width="14" height="12" rx="2"
          fill="none" stroke="currentColor" stroke-width="2"/>
    <path d="M17 10l4-2v8l-4-2"
          fill="none" stroke="currentColor" stroke-width="2" stroke-linejoin="round"/>
  </symbol>


<!-- Photo -->

<symbol id="photo" viewBox="0 0 24 24">
	<path d="M4 7h3l2-3h6l2 3h3a2 2 0 0 1 2 2v9a2 2 0 0 1-2 2H4a2 2 0 0 1-2-2V9a2 2 0 0 1 2-2z"
		fill="none" stroke="currentColor" stroke-width="2" stroke-linecap="round" stroke-linejoin="round"/>
	<circle cx="12" cy="13" r="4"
		fill="none" stroke="currentColor" stroke-width="2"/>
</symbol>



	<!-- Event -->
	<symbol id="event" viewBox="0 0 24 24">
		<rect x="3" y="4" width="18" height="18" rx="2" ry="2"
			fill="none" stroke="currentColor" stroke-width="2"/>
		<line x1="3" y1="10" x2="21" y2="10" stroke="currentColor" stroke-width="2"/>
		<circle cx="8" cy="16" r="1.5" fill="currentColor"/>
		<circle cx="12" cy="16" r="1.5" fill="currentColor"/>
		<circle cx="16" cy="16" r="1.5" fill="currentColor"/>
	</symbol>

	<!-- Arrow Down -->
<symbol id="arrow-down" viewBox="0 0 24 24">
	<path d="M7 10l5 5 5-5H7z" fill="currentColor"/>
</symbol>


	<!-- Like -->
	<symbol id="like" viewBox="0 0 24 24">
		<path d="M14 9V5a3 3 0 0 0-6 0v4H4v11h13l3-9V9h-6z"
			fill="none" stroke="currentColor" stroke-width="2" stroke-linejoin="round"/>
	</symbol>


	<!-- Comment -->
	<symbol id="comment" viewBox="0 0 24 24">
		<path d="M4 5h16v12H7l-3 3V5z"
			fill="none" stroke="currentColor" stroke-width="2" stroke-linejoin="round"/>
	</symbol>

	<!-- Share -->
	<symbol id="share" viewBox="0 0 24 24">
		<circle cx="18" cy="5" r="3" fill="none" stroke="currentColor" stroke-width="2"/>
		<circle cx="6" cy="12" r="3" fill="none" stroke="currentColor" stroke-width="2"/>
		<circle cx="18" cy="19" r="3" fill="none" stroke="currentColor" stroke-width="2"/>
		<path d="M8.5 13.5l7 4m-7-7l7-4"
			fill="none" stroke="currentColor" stroke-width="2" stroke-linecap="round"/>
	</symbol>

	<!-- Send -->
	<symbol id="send" viewBox="0 0 24 24">
		<path d="M3 12l18-9-5 18-4-7-7-2z"
			fill="none" stroke="currentColor" stroke-width="2" stroke-linejoin="round"/>
	</symbol>

<!--  -->
<symbol id="more" viewBox="0 0 24 24">
	<circle cx="12" cy="12" r="10" fill="none" stroke="#0a66c2" stroke-width="2"/>
	<line x1="12" y1="8" x2="12" y2="13" stroke="#0a66c2" stroke-width="2" stroke-linecap="round"/>
	<circle cx="12" cy="16" r="1" fill="#0a66c2"/>
</symbol> 

<!--  -->

<symbol id="live-video" viewBox="0 0 24 24">
  <rect x="3" y="6" width="14" height="12" rx="2"
        fill="none" stroke="#e53935" stroke-width="2"/>
  <path d="M17 10l4-2v8l-4-2"
        fill="none" stroke="#e53935" stroke-width="2" stroke-linejoin="round"/>
</symbol>

<symbol id="photo-video" viewBox="0 0 24 24">
  <rect x="3" y="4" width="18" height="14" rx="2"
        fill="none" stroke="#43a047" stroke-width="2"/>
  <circle cx="12" cy="11" r="3"
          fill="none" stroke="#43a047" stroke-width="2"/>
</symbol>

<symbol id="feeling" viewBox="0 0 24 24">
  <circle cx="12" cy="12" r="9"
          fill="none" stroke="#fbc02d" stroke-width="2"/>
  <path d="M9 10h.01M15 10h.01"
        stroke="#fbc02d" stroke-width="2" stroke-linecap="round"/>
  <path d="M8 15c1.5 1 3.5 1 5 0"
        fill="none" stroke="#fbc02d" stroke-width="2" stroke-linecap="round"/>
</symbol>


<!--  -->

 <!-- Like -->
  <symbol id="like" viewBox="0 0 24 24">
    <path d="M14 9V5a3 3 0 0 0-6 0v4H4v11h13l3-9V9h-6z"
          fill="none" stroke="currentColor" stroke-width="2" stroke-linejoin="round"/>
  </symbol>

  <!-- Comments -->
  <symbol id="comments" viewBox="0 0 24 24">
    <path d="M4 5h16v12H7l-3 3V5z"
          fill="none" stroke="currentColor" stroke-width="2" stroke-linejoin="round"/>
  </symbol>

  <!-- Share (arrow) -->
  <symbol id="share" viewBox="0 0 24 24">
    <path d="M4 12h12" 
          stroke="currentColor" stroke-width="2" stroke-linecap="round"/>
    <path d="M12 6l6 6-6 6"
          fill="none" stroke="currentColor" stroke-width="2" stroke-linecap="round" stroke-linejoin="round"/>
  </symbol>

<symbol id="add-friend" viewBox="0 0 24 24">
    <circle cx="9" cy="6.5" r="3.8" fill="currentColor"/>
    <path d="M3.5 21c0-4.5 3.2-7.5 6.5-7.5s6.5 3 6.5 7.5H3.5z"
          fill="currentColor"/>
    <rect x="15" y="8" width="2.6" height="7" rx="1.3" fill="currentColor"/>
    <rect x="12.7" y="10.2" width="7" height="2.6" rx="1.3" fill="currentColor"/>
</symbol>



<symbol id="more-horizontal" viewBox="0 0 24 24">
    <circle cx="5" cy="12" r="2" fill="currentColor"/>
    <circle cx="12" cy="12" r="2" fill="currentColor"/>
    <circle cx="19" cy="12" r="2" fill="currentColor"/>
</symbol>


<symbol id="graduation-cap" viewBox="0 0 24 24">
    <path d="M2 10l10-5 10 5-10 5-10-5z"
          fill="none" stroke="currentColor" stroke-width="2"/>
    <path d="M12 15v6"
          fill="none" stroke="currentColor" stroke-width="2"/>
    <path d="M6 12v5a6 3 0 0 0 12 0v-5"
          fill="none" stroke="currentColor" stroke-width="2"/>
</symbol>


<symbol id="briefcase" viewBox="0 0 24 24">
    <rect x="3" y="7" width="18" height="13" rx="2"
          fill="none" stroke="currentColor" stroke-width="2"/>
    <path d="M8 7V5a2 2 0 0 1 2-2h4a2 2 0 0 1 2 2v2"
          fill="none" stroke="currentColor" stroke-width="2"/>
    <line x1="3" y1="12" x2="21" y2="12"
          stroke="currentColor" stroke-width="2"/>
</symbol>


  <!-- Home -->
  <symbol id="home" viewBox="0 0 24 24">
    <path d="M5 12l7-7l7 7v7a2 2 0 0 1 -2 2h-3v-5h-4v5h-3a2 2 0 0 1 -2 -2z"
          fill="none" stroke="currentColor" stroke-width="2" stroke-linecap="round" stroke-linejoin="round"/>
  </symbol>

  <symbol id="location" viewBox="0 0 24 24">
    <path d="M12 22s7-7.2 7-12a7 7 0 1 0-14 0c0 4.8 7 12 7 12z"
          fill="none" stroke="currentColor" stroke-width="2"/>
    <circle cx="12" cy="10" r="3"
            fill="none" stroke="currentColor" stroke-width="2"/>
</symbol>


</svg>