<svg xmlns="http://www.w3.org/2000/svg" xmlns:xlink="http://www.w3.org/1999/xlink"><symbol fill="none" id="sprite-account_circle" viewBox="0 0 32 32"><path d="M5.62392 25.0769C7.20583 23.9615 8.82424 23.0919 10.4791 22.468C12.134 21.844 13.9188 21.532 15.8333 21.532C17.7478 21.532 19.5354 21.844 21.196 22.468C22.8566 23.0919 24.4779 23.9615 26.0598 25.0769C27.2129 23.7614 28.0867 22.3337 28.681 20.7939C29.2754 19.2541 29.5726 17.6006 29.5726 15.8333C29.5726 11.9807 28.2459 8.72771 25.5924 6.07421C22.9389 3.42071 19.6858 2.09396 15.8333 2.09396C11.9807 2.09396 8.72771 3.42071 6.07421 6.07421C3.42071 8.72771 2.09396 11.9807 2.09396 15.8333C2.09396 17.6006 2.394 19.2541 2.99408 20.7939C3.59417 22.3337 4.47078 23.7614 5.62392 25.0769ZM15.8274 16.8803C14.3214 16.8803 13.0534 16.3633 12.0235 15.3295C10.9936 14.2957 10.4786 13.0258 10.4786 11.5198C10.4786 10.0137 10.9955 8.74571 12.0293 7.71579C13.0632 6.68588 14.3331 6.17092 15.8392 6.17092C17.3452 6.17092 18.6132 6.68783 19.6431 7.72167C20.673 8.75547 21.188 10.0254 21.188 11.5315C21.188 13.0375 20.6711 14.3055 19.6372 15.3354C18.6034 16.3653 17.3335 16.8803 15.8274 16.8803ZM15.8463 31.6666C13.6503 31.6666 11.5902 31.2531 9.66596 30.4262C7.74174 29.5993 6.06315 28.4686 4.63021 27.0341C3.19726 25.5996 2.06733 23.9232 1.24042 22.0048C0.413472 20.0864 0 18.0286 0 15.8313C0 13.6339 0.413472 11.5767 1.24042 9.65971C2.06733 7.74268 3.19803 6.06695 4.6325 4.6325C6.06694 3.19803 7.74336 2.06733 9.66175 1.24042C11.5801 0.413473 13.638 0 15.8353 0C18.0327 0 20.0899 0.413473 22.0069 1.24042C23.9239 2.06733 25.5996 3.19803 27.0341 4.6325C28.4686 6.06695 29.5993 7.74297 30.4262 9.66058C31.2531 11.5782 31.6666 13.6314 31.6666 15.8203C31.6666 18.0163 31.2531 20.0764 30.4262 22.0006C29.5993 23.9248 28.4686 25.6034 27.0341 27.0364C25.5996 28.4693 23.9236 29.5993 22.006 30.4262C20.0884 31.2531 18.0352 31.6666 15.8463 31.6666ZM15.8333 29.5726C17.3675 29.5726 18.8694 29.3278 20.3392 28.8381C21.8089 28.3484 23.1681 27.5918 24.4167 26.5683C23.1681 25.6367 21.8203 24.9134 20.3734 24.3984C18.9264 23.8835 17.4131 23.626 15.8333 23.626C14.2535 23.626 12.7375 23.8808 11.2852 24.3904C9.8329 24.9 8.49137 25.626 7.26063 26.5683C8.50207 27.5918 9.85767 28.3484 11.3274 28.8381C12.7971 29.3278 14.2991 29.5726 15.8333 29.5726ZM15.8348 14.7863C16.7754 14.7863 17.5538 14.4778 18.1698 13.8607C18.7859 13.2436 19.094 12.4647 19.094 11.5241C19.094 10.5835 18.7855 9.80515 18.1684 9.18904C17.5513 8.57293 16.7724 8.26488 15.8318 8.26488C14.8912 8.26488 14.1128 8.57343 13.4967 9.19054C12.8806 9.80763 12.5726 10.5865 12.5726 11.5271C12.5726 12.4677 12.8811 13.2461 13.4982 13.8622C14.1153 14.4783 14.8942 14.7863 15.8348 14.7863Z" fill="currentColor"/></symbol><use xlink:href="#sprite-account_circle" width="32" height="32" y="0"/><view id="sprite-account_circle-view" viewBox="0 0 32 32"/><symbol fill="none" id="sprite-arrow" viewBox="0 0 23 31"><path d="M12.5459 1.5C12.5459 0.671573 11.8743 -3.62117e-08 11.0459 0C10.2175 3.62117e-08 9.5459 0.671573 9.5459 1.5L11.0459 1.5L12.5459 1.5ZM9.98524 30.5607C10.571 31.1464 11.5208 31.1464 12.1066 30.5607L21.6525 21.0147C22.2383 20.4289 22.2383 19.4792 21.6525 18.8934C21.0667 18.3076 20.117 18.3076 19.5312 18.8934L11.0459 27.3787L2.56062 18.8934C1.97483 18.3076 1.02508 18.3076 0.439297 18.8934C-0.146489 19.4792 -0.146489 20.4289 0.439298 21.0147L9.98524 30.5607ZM11.0459 1.5L9.5459 1.5L9.5459 29.5L11.0459 29.5L12.5459 29.5L12.5459 1.5L11.0459 1.5Z" fill="currentColor"/></symbol><use xlink:href="#sprite-arrow" width="23" height="31" y="32"/><view id="sprite-arrow-view" viewBox="0 32 23 31"/><symbol fill="currentColor" id="sprite-facebook" viewBox="0 0 24 24"><path d="M14 13.5H16.5L17.5 9.5H14V7.5C14 6.47062 14 5.5 16 5.5H17.5V2.1401C17.1743 2.09685 15.943 2 14.6429 2C11.9284 2 10 3.65686 10 6.69971V9.5H7V13.5H10V22H14V13.5Z"/></symbol><use xlink:href="#sprite-facebook" width="24" height="24" y="63"/><view id="sprite-facebook-view" viewBox="0 63 24 24"/><symbol fill="currentColor" id="sprite-instagram" viewBox="0 0 24 24"><path d="M12.001 9C10.3436 9 9.00098 10.3431 9.00098 12C9.00098 13.6573 10.3441 15 12.001 15C13.6583 15 15.001 13.6569 15.001 12C15.001 10.3427 13.6579 9 12.001 9ZM12.001 7C14.7614 7 17.001 9.2371 17.001 12C17.001 14.7605 14.7639 17 12.001 17C9.24051 17 7.00098 14.7629 7.00098 12C7.00098 9.23953 9.23808 7 12.001 7ZM18.501 6.74915C18.501 7.43926 17.9402 7.99917 17.251 7.99917C16.5609 7.99917 16.001 7.4384 16.001 6.74915C16.001 6.0599 16.5617 5.5 17.251 5.5C17.9393 5.49913 18.501 6.0599 18.501 6.74915ZM12.001 4C9.5265 4 9.12318 4.00655 7.97227 4.0578C7.18815 4.09461 6.66253 4.20007 6.17416 4.38967C5.74016 4.55799 5.42709 4.75898 5.09352 5.09255C4.75867 5.4274 4.55804 5.73963 4.3904 6.17383C4.20036 6.66332 4.09493 7.18811 4.05878 7.97115C4.00703 9.0752 4.00098 9.46105 4.00098 12C4.00098 14.4745 4.00753 14.8778 4.05877 16.0286C4.0956 16.8124 4.2012 17.3388 4.39034 17.826C4.5591 18.2606 4.7605 18.5744 5.09246 18.9064C5.42863 19.2421 5.74179 19.4434 6.17187 19.6094C6.66619 19.8005 7.19148 19.9061 7.97212 19.9422C9.07618 19.9939 9.46203 20 12.001 20C14.4755 20 14.8788 19.9934 16.0296 19.9422C16.8117 19.9055 17.3385 19.7996 17.827 19.6106C18.2604 19.4423 18.5752 19.2402 18.9074 18.9085C19.2436 18.5718 19.4445 18.2594 19.6107 17.8283C19.8013 17.3358 19.9071 16.8098 19.9432 16.0289C19.9949 14.9248 20.001 14.5389 20.001 12C20.001 9.52552 19.9944 9.12221 19.9432 7.97137C19.9064 7.18906 19.8005 6.66149 19.6113 6.17318C19.4434 5.74038 19.2417 5.42635 18.9084 5.09255C18.573 4.75715 18.2616 4.55693 17.8271 4.38942C17.338 4.19954 16.8124 4.09396 16.0298 4.05781C14.9258 4.00605 14.5399 4 12.001 4ZM12.001 2C14.7176 2 15.0568 2.01 16.1235 2.06C17.1876 2.10917 17.9135 2.2775 18.551 2.525C19.2101 2.77917 19.7668 3.1225 20.3226 3.67833C20.8776 4.23417 21.221 4.7925 21.476 5.45C21.7226 6.08667 21.891 6.81333 21.941 7.8775C21.9885 8.94417 22.001 9.28333 22.001 12C22.001 14.7167 21.991 15.0558 21.941 16.1225C21.8918 17.1867 21.7226 17.9125 21.476 18.55C21.2218 19.2092 20.8776 19.7658 20.3226 20.3217C19.7668 20.8767 19.2076 21.22 18.551 21.475C17.9135 21.7217 17.1876 21.89 16.1235 21.94C15.0568 21.9875 14.7176 22 12.001 22C9.28431 22 8.94514 21.99 7.87848 21.94C6.81431 21.8908 6.08931 21.7217 5.45098 21.475C4.79264 21.2208 4.23514 20.8767 3.67931 20.3217C3.12348 19.7658 2.78098 19.2067 2.52598 18.55C2.27848 17.9125 2.11098 17.1867 2.06098 16.1225C2.01348 15.0558 2.00098 14.7167 2.00098 12C2.00098 9.28333 2.01098 8.94417 2.06098 7.8775C2.11014 6.8125 2.27848 6.0875 2.52598 5.45C2.78014 4.79167 3.12348 4.23417 3.67931 3.67833C4.23514 3.1225 4.79348 2.78 5.45098 2.525C6.08848 2.2775 6.81348 2.11 7.87848 2.06C8.94514 2.0125 9.28431 2 12.001 2Z"/></symbol><use xlink:href="#sprite-instagram" width="24" height="24" y="87"/><view id="sprite-instagram-view" viewBox="0 87 24 24"/><symbol fill="currentColor" id="sprite-linkedin" viewBox="0 0 24 24"><path d="M6.94048 4.99993C6.94011 5.81424 6.44608 6.54702 5.69134 6.85273C4.9366 7.15845 4.07187 6.97605 3.5049 6.39155C2.93793 5.80704 2.78195 4.93715 3.1105 4.19207C3.43906 3.44699 4.18654 2.9755 5.00048 2.99993C6.08155 3.03238 6.94097 3.91837 6.94048 4.99993ZM7.00048 8.47993H3.00048V20.9999H7.00048V8.47993ZM13.3205 8.47993H9.34048V20.9999H13.2805V14.4299C13.2805 10.7699 18.0505 10.4299 18.0505 14.4299V20.9999H22.0005V13.0699C22.0005 6.89993 14.9405 7.12993 13.2805 10.1599L13.3205 8.47993Z"/></symbol><use xlink:href="#sprite-linkedin" width="24" height="24" y="111"/><view id="sprite-linkedin-view" viewBox="0 111 24 24"/><symbol fill="none" id="sprite-search" viewBox="0 0 34 34"><path d="M12.1499 24.1576C8.75715 24.1576 5.88397 22.9813 3.5304 20.6288C1.1768 18.2762 0 15.4262 0 12.0788C0 8.7314 1.17628 5.88141 3.52885 3.52885C5.88138 1.17628 8.73503 0 12.0898 0C15.4446 0 18.2978 1.17628 20.6494 3.52885C23.001 5.88141 24.1768 8.73158 24.1768 12.0793C24.1768 13.4803 23.9371 14.8442 23.4576 16.1711C22.9781 17.498 22.2845 18.6999 21.3768 19.7768L33.5537 31.873C33.7768 32.0813 33.8915 32.3545 33.8979 32.6926C33.9044 33.0308 33.7896 33.3147 33.5537 33.5441C33.3178 33.7736 33.034 33.8883 32.7023 33.8883C32.3705 33.8883 32.0941 33.7704 31.873 33.5345L19.7461 21.4076C18.7512 22.2881 17.591 22.9665 16.2656 23.4429C14.9402 23.9194 13.5683 24.1576 12.1499 24.1576ZM12.1192 21.8884C14.851 21.8884 17.1654 20.9365 19.0623 19.0326C20.9592 17.1288 21.9076 14.8109 21.9076 12.0788C21.9076 9.34677 20.9592 7.02881 19.0623 5.12495C17.1654 3.22111 14.851 2.2692 12.1192 2.2692C9.37027 2.2692 7.04137 3.22111 5.1325 5.12495C3.22363 7.02881 2.2692 9.34677 2.2692 12.0788C2.2692 14.8109 3.22363 17.1288 5.1325 19.0326C7.04137 20.9365 9.37027 21.8884 12.1192 21.8884Z" fill="currentColor"/></symbol><use xlink:href="#sprite-search" width="34" height="34" y="135"/><view id="sprite-search-view" viewBox="0 135 34 34"/></svg>