<svg xmlns="http://www.w3.org/2000/svg">

<symbol id="menu" viewBox="0 0 24 24">
  <line x1="3" y1="6" x2="21" y2="6"
        stroke="currentColor" stroke-width="2" stroke-linecap="round"/>

  <line x1="3" y1="12" x2="17" y2="12"
        stroke="currentColor" stroke-width="2" stroke-linecap="round"/>

  <line x1="3" y1="18" x2="13" y2="18"
        stroke="currentColor" stroke-width="2" stroke-linecap="round"/>
</symbol>

  <!-- Search -->
  <symbol id="search" viewBox="0 0 24 24">
    <circle cx="11" cy="11" r="7" fill="none" stroke="currentColor" stroke-width="2"/>
    <line x1="16.65" y1="16.65" x2="21" y2="21"
          stroke="currentColor" stroke-width="2" stroke-linecap="round"/>
  </symbol>

  <symbol id="mic-colored" viewBox="0 0 24 24">
  <rect x="9" y="2" width="6" height="12" rx="3" fill="#4285F4"/>
  <rect x="11" y="14" width="2" height="4" rx="1" fill="#34A853"/>
  <path d="M7 11a5 5 0 0 0 10 0" fill="none" stroke="#FBBC05" stroke-width="2"/>
  <path d="M5 11v1a7 7 0 0 0 14 0v-1" fill="none" stroke="#EA4335" stroke-width="2"/>
</symbol>


<symbol id="live-video" viewBox="0 0 24 24">
  <rect 
    x="3" 
    y="6" 
    width="14" 
    height="12" 
    rx="2"
    fill="none" 
    stroke="currentColor" 
    stroke-width="2"
  />
  <path 
    d="M17 10l4-2v8l-4-2"
    fill="none" 
    stroke="currentColor" 
    stroke-width="2" 
    stroke-linejoin="round"
  />
</symbol>


  <!-- Notifications -->
  <symbol id="notification" viewBox="0 0 24 24">
    <path d="M10 21h4a2 2 0 0 1 -4 0z"
          fill="none" stroke="currentColor" stroke-width="2"/>
    <path d="M18 16v-5a6 6 0 1 0 -12 0v5l-2 2h16z"
          fill="none" stroke="currentColor" stroke-width="2"/>
  </symbol>


<symbol id="more-apps" viewBox="0 0 24 24">
  <!-- Top-left -->
  <rect x="3" y="3" width="6" height="6" rx="1.5"
        fill="none" stroke="currentColor" stroke-width="2"/>
  <rect x="15" y="3" width="6" height="6" rx="1.5"
        fill="none" stroke="currentColor" stroke-width="2"
        transform="rotate(15 18 6)"/>
  <rect x="3" y="15" width="6" height="6" rx="1.5"
        fill="none" stroke="currentColor" stroke-width="2"/>
  <rect x="15" y="15" width="6" height="6" rx="1.5"
        fill="none" stroke="currentColor" stroke-width="2"/>
</symbol>

<symbol id="home" viewBox="0 0 24 24">
	<path d="M3 10l9-7 9 7v10a2 2 0 0 1-2 2h-4a2 2 0 0 1-2-2v-4H9v4a2 2 0 0 1-2 2H3z"
	      fill="none" stroke="currentColor" stroke-width="2" stroke-linejoin="round"/>
</symbol>

<symbol id="explore" viewBox="0 0 24 24">
	<circle cx="12" cy="12" r="10" fill="none" stroke="currentColor" stroke-width="2"/>
	<polygon points="10 10 16 8 14 14 8 16" fill="none" stroke="currentColor" stroke-width="2"/>
</symbol>

<symbol id="subscription" viewBox="0 0 24 24">
	<rect x="3" y="5" width="18" height="14" rx="2"
	      fill="none" stroke="currentColor" stroke-width="2"/>
	<path d="M3 10h18" stroke="currentColor" stroke-width="2"/>
</symbol>

<symbol id="library" viewBox="0 0 24 24">
	<rect x="3" y="4" width="6" height="16" rx="1.5"
	      fill="none" stroke="currentColor" stroke-width="2"/>
	<rect x="10" y="4" width="6" height="16" rx="1.5"
	      fill="none" stroke="currentColor" stroke-width="2"/>
	<rect x="17" y="4" width="4" height="16" rx="1.5"
	      fill="none" stroke="currentColor" stroke-width="2"/>
</symbol>

<symbol id="history" viewBox="0 0 24 24">
	<circle cx="12" cy="12" r="10" fill="none" stroke="currentColor" stroke-width="2"/>
	<polyline points="12 6 12 12 16 14"
	          fill="none" stroke="currentColor" stroke-width="2" stroke-linecap="round"/>
</symbol>

<symbol id="playlist" viewBox="0 0 24 24">
	<line x1="3" y1="6" x2="14" y2="6" stroke="currentColor" stroke-width="2"/>
	<line x1="3" y1="10" x2="14" y2="10" stroke="currentColor" stroke-width="2"/>
	<line x1="3" y1="14" x2="10" y2="14" stroke="currentColor" stroke-width="2"/>
	<circle cx="18" cy="14" r="3" fill="none" stroke="currentColor" stroke-width="2"/>
</symbol>

<symbol id="messages" viewBox="0 0 24 24">
	<path d="M4 5h16v10H7l-3 3z"
	      fill="none" stroke="currentColor" stroke-width="2" stroke-linejoin="round"/>
</symbol>


<!-- Arrow Down -->
<symbol id="arrow-down" viewBox="0 0 24 24">
  <polyline points="6 9 12 15 18 9"
            fill="none"
            stroke="currentColor"
            stroke-width="2"
            stroke-linecap="round"
            stroke-linejoin="round"/>
</symbol>

<symbol id="icon-like" viewBox="0 0 24 24">
	<path fill="currentColor" d="M2 21h4V9H2v12zm20-11c0-1.1-.9-2-2-2h-6.31l.95-4.57.03-.32a1 1 0 0 0-.29-.7L13 1 7.59 6.41A2 2 0 0 0 7 7.83V19a2 2 0 0 0 2 2h9c.83 0 1.54-.5 1.84-1.22l2.02-7.05c.09-.23.14-.47.14-.73v-.01z"/>
</symbol>

<symbol id="icon-dislike" viewBox="0 0 24 24">
	<path fill="currentColor" d="M22 3h-4v12h4V3zM2 14c0 1.1.9 2 2 2h6.31l-.95 4.57-.03.32c-.05.26.04.52.29.7L11 23l5.41-5.41A2 2 0 0 0 17 16.17V5a2 2 0 0 0-2-2H6c-.83 0-1.54.5-1.84 1.22L2.14 11.27c-.09.23-.14.47-.14.73z"/>
</symbol>

<symbol id="icon-share" viewBox="0 0 24 24">
	<path fill="currentColor" d="M18 16.08c-.76 0-1.44.3-1.96.77L8.91 12.7c.05-.23.09-.46.09-.7s-.04-.47-.09-.7l7.02-4.11c.54.5 1.25.81 2.07.81 1.66 0 3-1.34 3-3s-1.34-3-3-3-3 1.34-3 3c0 .24.04.47.09.7L8.91 9.81C8.37 9.31 7.66 9 6.84 9 5.18 9 3.84 10.34 3.84 12s1.34 3 3 3c.82 0 1.53-.31 2.07-.81l7.12 4.17c-.05.21-.08.43-.08.64 0 1.66 1.34 3 3 3s3-1.34 3-3-1.34-3-3-3z"/>
</symbol>

<symbol id="icon-save" viewBox="0 0 24 24">
	<path fill="currentColor" d="M17 3H5c-1.1 0-2 .9-2 2v14l7-3 7 3V5c0-1.1-.9-2-2-2z"/>
</symbol>


</svg>