<svg xmlns="http://www.w3.org/2000/svg">

  <!-- Home -->
  <symbol id="home" viewBox="0 0 24 24">
    <path d="M5 12l7-7l7 7v7a2 2 0 0 1 -2 2h-3v-5h-4v5h-3a2 2 0 0 1 -2 -2z"
          fill="none" stroke="currentColor" stroke-width="2" stroke-linecap="round" stroke-linejoin="round"/>
  </symbol>

  <!-- Network -->
  <symbol id="network" viewBox="0 0 24 24">
    <circle cx="12" cy="7" r="4" fill="none" stroke="currentColor" stroke-width="2"/>
    <path d="M4 21v-2a6 6 0 0 1 6 -6h4a6 6 0 0 1 6 6v2"
          fill="none" stroke="currentColor" stroke-width="2" stroke-linecap="round"/>
  </symbol>

  <!-- Jobs -->
  <symbol id="jobs" viewBox="0 0 24 24">
    <path d="M4 7h16v10a2 2 0 0 1 -2 2h-12a2 2 0 0 1 -2 -2z"
          fill="none" stroke="currentColor" stroke-width="2"/>
    <path d="M9 7v-2a2 2 0 0 1 2 -2h2a2 2 0 0 1 2 2v2"
          fill="none" stroke="currentColor" stroke-width="2"/>
  </symbol>

  <!-- Messaging -->
  <symbol id="message" viewBox="0 0 24 24">
    <path d="M3 20l1 -4a8 8 0 1 1 3 3z"
          fill="none" stroke="currentColor" stroke-width="2" stroke-linecap="round" stroke-linejoin="round"/>
  </symbol>

  <!-- Notifications -->
  <symbol id="notification" viewBox="0 0 24 24">
    <path d="M10 21h4a2 2 0 0 1 -4 0z"
          fill="none" stroke="currentColor" stroke-width="2"/>
    <path d="M18 16v-5a6 6 0 1 0 -12 0v5l-2 2h16z"
          fill="none" stroke="currentColor" stroke-width="2"/>
  </symbol>

  <!-- Search -->
  <symbol id="search" viewBox="0 0 24 24">
    <circle cx="11" cy="11" r="7" fill="none" stroke="currentColor" stroke-width="2"/>
    <line x1="16.65" y1="16.65" x2="21" y2="21"
          stroke="currentColor" stroke-width="2" stroke-linecap="round"/>
  </symbol>

  <!-- Feedback -->
  <symbol id="feedback" viewBox="0 0 24 24">
    <path d="M8 9h8" stroke="currentColor" stroke-width="2" fill="none"/>
    <path d="M8 13h6" stroke="currentColor" stroke-width="2" fill="none"/>
    <path d="M12 20l-4 -4h-2a2 2 0 0 1 -2 -2v-8a2 2 0 0 1 2 -2h12a2 2 0 0 1 2 2v8a2 2 0 0 1 -2 2h-6z"
          stroke="currentColor" stroke-width="2" fill="none"/>
  </symbol>

  <!-- Settings -->
  <symbol id="settings" viewBox="0 0 24 24">
    <path d="M12 15a3 3 0 1 0 -3 -3a3 3 0 0 0 3 3z"
          fill="none" stroke="currentColor" stroke-width="2"/>
    <path d="M19.4 15a1.7 1.7 0 0 0 .3 1.8l.1.1a2 2 0 1 1 -2.8 2.8l-.1-.1a1.7 1.7 0 0 0 -1.8-.3a1.7 1.7 0 0 0 -1 1.5v.2a2 2 0 1 1 -4 0v-.2a1.7 1.7 0 0 0 -1-1.5a1.7 1.7 0 0 0 -1.8.3l-.1.1a2 2 0 1 1 -2.8-2.8l.1-.1a1.7 1.7 0 0 0 .3-1.8a1.7 1.7 0 0 0 -1.5-1h-.2a2 2 0 1 1 0-4h.2a1.7 1.7 0 0 0 1.5-1a1.7 1.7 0 0 0 -.3-1.8l-.1-.1a2 2 0 1 1 2.8-2.8l.1.1a1.7 1.7 0 0 0 1.8.3a1.7 1.7 0 0 0 1-1.5v-.2a2 2 0 1 1 4 0v.2a1.7 1.7 0 0 0 1 1.5a1.7 1.7 0 0 0 1.8-.3l.1-.1a2 2 0 1 1 2.8 2.8l-.1.1a1.7 1.7 0 0 0 -.3 1.8a1.7 1.7 0 0 0 1.5 1h.2a2 2 0 1 1 0 4h-.2a1.7 1.7 0 0 0 -1.5 1z"
          fill="none" stroke="currentColor" stroke-width="2"/>
  </symbol>

<!-- Help -->
<symbol id="help" viewBox="0 0 24 24">
  <circle cx="12" cy="12" r="9"
          fill="none" stroke="currentColor" stroke-width="2"/>
  <path d="M12 8a2.5 2.5 0 1 1 -2.5 2.5"
        fill="none" stroke="currentColor" stroke-width="2"/>
  <circle cx="12" cy="16.5" r="1.5" fill="currentColor"/>
</symbol>

<!-- Display -->
<symbol id="display" viewBox="0 0 24 24">
  <rect x="3" y="4" width="18" height="12" rx="2"
        fill="none" stroke="currentColor" stroke-width="2"/>
  <rect x="9" y="18" width="6" height="2" rx="1"
        fill="currentColor"/>
</symbol>



  <!-- Logout -->
  <symbol id="logout" viewBox="0 0 24 24">
    <path d="M14 8v-2a2 2 0 0 0 -2 -2h-6a2 2 0 0 0 -2 2v12a2 2 0 0 0 2 2h6a2 2 0 0 0 2 -2v-2"
          fill="none" stroke="currentColor" stroke-width="2"/>
    <path d="M9 12h12l-3 -3m0 6l3 -3"
          fill="none" stroke="currentColor" stroke-width="2"/>
  </symbol>
<!--  -->
  <!-- Items -->
<symbol id="items" viewBox="0 0 24 24">
  <rect x="4" y="4" width="16" height="16" rx="2"
        fill="none" stroke="currentColor" stroke-width="2"/>
  <path d="M4 10h16" stroke="currentColor" stroke-width="2"/>
  <path d="M10 4v16" stroke="currentColor" stroke-width="2"/>
</symbol>

<!-- Premium -->
<symbol id="premium" viewBox="0 0 24 24">
  <path d="M12 3l2.5 7h7l-5.5 4 2.5 7-6.5-4-6.5 4 2.5-7-5.5-4h7z"
        fill="none" stroke="currentColor" stroke-width="2" stroke-linejoin="round"/>
</symbol>

<!-- Recent -->
<symbol id="recent" viewBox="0 0 24 24">
  <circle cx="12" cy="12" r="9"
          fill="none" stroke="currentColor" stroke-width="2"/>
  <path d="M12 7v5l3 3"
        stroke="currentColor" stroke-width="2" stroke-linecap="round"/>
</symbol>

<!-- Group -->
<symbol id="group" viewBox="0 0 24 24">
  <circle cx="9" cy="7" r="3" fill="none" stroke="currentColor" stroke-width="2"/>
  <circle cx="17" cy="7" r="3" fill="none" stroke="currentColor" stroke-width="2"/>
  <path d="M4 21v-2a5 5 0 0 1 5-5h2"
        stroke="currentColor" stroke-width="2" fill="none"/>
  <path d="M13 14h2a5 5 0 0 1 5 5v2"
        stroke="currentColor" stroke-width="2" fill="none"/>
</symbol>

<!-- Hashtag -->
<symbol id="hashtag" viewBox="0 0 24 24">
  <path d="M5 9h14" stroke="currentColor" stroke-width="2"/>
  <path d="M5 15h14" stroke="currentColor" stroke-width="2"/>
  <path d="M9 5v14" stroke="currentColor" stroke-width="2"/>
  <path d="M15 5v14" stroke="currentColor" stroke-width="2"/>
</symbol>
<!-- POST SECTION ICONS -->
<!-- Photo -->

<symbol id="photo" viewBox="0 0 24 24">
	<path d="M4 7h3l2-3h6l2 3h3a2 2 0 0 1 2 2v9a2 2 0 0 1-2 2H4a2 2 0 0 1-2-2V9a2 2 0 0 1 2-2z"
		fill="none" stroke="currentColor" stroke-width="2" stroke-linecap="round" stroke-linejoin="round"/>
	<circle cx="12" cy="13" r="4"
		fill="none" stroke="currentColor" stroke-width="2"/>
</symbol>


	<!-- Video -->
	<symbol id="video" viewBox="0 0 24 24">
		<path d="M3 7a2 2 0 0 1 2-2h9a2 2 0 0 1 2 2v10a2 2 0 0 1-2 2H5a2 2 0 0 1-2-2V7z" 
			fill="none" stroke="currentColor" stroke-width="2"/>
		<path d="M17 9l4-2v10l-4-2" fill="none" stroke="currentColor" stroke-width="2" stroke-linejoin="round"/>
	</symbol>

	<!-- Event -->
	<symbol id="event" viewBox="0 0 24 24">
		<rect x="3" y="4" width="18" height="18" rx="2" ry="2"
			fill="none" stroke="currentColor" stroke-width="2"/>
		<line x1="3" y1="10" x2="21" y2="10" stroke="currentColor" stroke-width="2"/>
		<circle cx="8" cy="16" r="1.5" fill="currentColor"/>
		<circle cx="12" cy="16" r="1.5" fill="currentColor"/>
		<circle cx="16" cy="16" r="1.5" fill="currentColor"/>
	</symbol>

	<!-- Arrow Down -->
<symbol id="arrow-down" viewBox="0 0 24 24">
	<path d="M7 10l5 5 5-5H7z" fill="currentColor"/>
</symbol>


	<!-- Like -->
	<symbol id="like" viewBox="0 0 24 24">
		<path d="M14 9V5a3 3 0 0 0-6 0v4H4v11h13l3-9V9h-6z"
			fill="none" stroke="currentColor" stroke-width="2" stroke-linejoin="round"/>
	</symbol>

	<!-- Love -->
<symbol id="love" viewBox="0 0 24 24">
	<circle cx="12" cy="12" r="10" fill="#ff4d4d"/>
	<path d="M12 18s-4-3-6-6c-3-4 1-8 4-6 1.5 1 2 2 2 2s.5-1 2-2c3-2 7 2 4 6-2 3-6 6-6 6z"
		fill="#fff"/>
</symbol>

	<!-- Clap -->
<symbol id="clap" viewBox="0 0 24 24">
	<circle cx="12" cy="12" r="10" fill="#4caf50"/>
	<path d="M9.5 15.5l1.2-4.2c.2-.7 1.1-.9 1.5-.3l1.3 2 1.1-3.2c.2-.7 1.1-.9 1.5-.3l1.4 2.3"
		fill="none" stroke="#fff" stroke-width="2.4" stroke-linecap="round" stroke-linejoin="round"/>
</symbol>



	<!-- Comment -->
	<symbol id="comment" viewBox="0 0 24 24">
		<path d="M4 5h16v12H7l-3 3V5z"
			fill="none" stroke="currentColor" stroke-width="2" stroke-linejoin="round"/>
	</symbol>

	<!-- Share -->
	<symbol id="share" viewBox="0 0 24 24">
		<circle cx="18" cy="5" r="3" fill="none" stroke="currentColor" stroke-width="2"/>
		<circle cx="6" cy="12" r="3" fill="none" stroke="currentColor" stroke-width="2"/>
		<circle cx="18" cy="19" r="3" fill="none" stroke="currentColor" stroke-width="2"/>
		<path d="M8.5 13.5l7 4m-7-7l7-4"
			fill="none" stroke="currentColor" stroke-width="2" stroke-linecap="round"/>
	</symbol>

	<!-- Send -->
	<symbol id="send" viewBox="0 0 24 24">
		<path d="M3 12l18-9-5 18-4-7-7-2z"
			fill="none" stroke="currentColor" stroke-width="2" stroke-linejoin="round"/>
	</symbol>

<!--  -->
<symbol id="more" viewBox="0 0 24 24">
	<circle cx="12" cy="12" r="10" fill="none" stroke="#0a66c2" stroke-width="2"/>
	<line x1="12" y1="8" x2="12" y2="13" stroke="#0a66c2" stroke-width="2" stroke-linecap="round"/>
	<circle cx="12" cy="16" r="1" fill="#0a66c2"/>
</symbol>



</svg>